<svg width="150" height="120" viewBox="0 0 150 120" fill="none" xmlns="http://www.w3.org/2000/svg">
<path d="M94.836 2.20396C110.207 2.20396 125.578 2.18996 140.949 2.21396C145.63 2.22096 148.25 4.22396 149.108 8.28696C149.929 12.173 147.721 15.706 143.841 16.564C142.638 16.83 141.374 16.924 140.138 16.925C109.728 16.944 79.318 16.944 48.909 16.937C45.44 16.937 42.135 16.369 40.617 12.716C38.435 7.46396 41.735 2.42596 47.479 2.24496C52.044 2.10096 56.618 2.20596 61.187 2.20496C72.404 2.20296 83.62 2.20496 94.837 2.20496L94.836 2.20396Z" fill="#8315F9"/>
<path d="M94.547 52.076C110.001 52.076 125.455 52.063 140.909 52.085C145.614 52.092 148.227 54.066 149.099 58.12C149.935 62.009 147.747 65.558 143.879 66.428C142.677 66.698 141.412 66.795 140.176 66.796C109.766 66.816 79.357 66.813 48.947 66.811C44.351 66.811 41.595 65.358 40.528 62.397C38.549 56.905 41.903 52.14 47.935 52.099C58.57 52.026 69.205 52.076 79.84 52.075C84.742 52.075 89.644 52.075 94.546 52.075L94.547 52.076Z" fill="#8315F9"/>
<path d="M94.932 101.947C110.22 101.947 125.508 101.936 140.796 101.955C145.631 101.961 148.29 103.971 149.128 108.125C149.886 111.883 147.712 115.407 143.99 116.282C142.791 116.564 141.525 116.666 140.289 116.667C109.796 116.688 79.303 116.686 48.81 116.682C44.142 116.682 41.47 115.139 40.432 111.897C38.721 106.557 42.01 102.045 47.821 101.973C55.048 101.883 62.278 101.948 69.506 101.947C77.981 101.947 86.457 101.947 94.932 101.947Z" fill="#8315F9"/>
<path d="M0.0269862 9.565C0.0439862 3.771 3.89299 0.00500489 9.80399 4.89473e-06C15.797 -0.00499511 19.57 3.821 19.533 9.867C19.498 15.496 15.388 19.59 9.75499 19.534C4.82399 19.484 -0.417014 15.927 0.0269862 9.565Z" fill="#8315F9"/>
<path d="M0.0270143 59.4329C0.0450143 53.6399 3.89701 49.875 9.80801 49.872C15.802 49.869 19.571 53.6949 19.533 59.7429C19.497 65.3709 15.384 69.4639 9.75101 69.4059C4.81301 69.3549 -0.418986 65.7899 0.0270143 59.4329Z" fill="#8315F9"/>
<path d="M0.0269982 109.514C0.00299824 103.529 3.829 99.723 9.848 99.745C15.759 99.766 19.498 103.499 19.528 109.405C19.557 115.195 15.446 119.332 9.712 119.283C4.082 119.236 0.0499982 115.169 0.0279982 109.513L0.0269982 109.514Z" fill="#8315F9"/>
</svg>
