<svg width="1117" height="563" viewBox="0 0 1117 563" fill="none" xmlns="http://www.w3.org/2000/svg">
<g clip-path="url(#clip0_86_816)">
<g clip-path="url(#clip1_86_816)">
<path d="M724.702 -19.0521L672.805 10.91V-49.0151L724.702 -78.9771V-19.0521Z" fill="#EAD5FE"/>
<path d="M672.805 12.41C672.546 12.41 672.287 12.3429 672.055 12.2089C671.591 11.9409 671.305 11.446 671.305 10.91V-49.0151C671.305 -49.5511 671.591 -50.046 672.055 -50.314L723.951 -80.2761C724.415 -80.5441 724.987 -80.5441 725.451 -80.2761C725.915 -80.0081 726.201 -79.513 726.201 -78.977V-19.0521C726.201 -18.5161 725.915 -18.0211 725.451 -17.7531L673.555 12.2089C673.323 12.3429 673.064 12.41 672.805 12.41ZM674.305 -48.1491V8.31196L723.201 -19.918V-76.3791L674.305 -48.1491Z" fill="#8B16FC"/>
<path d="M633.883 93.307L439.27 205.667L-14.825 -56.505V-176.355L633.883 -26.543V93.307Z" fill="#F4EAFF"/>
<path d="M439.27 207.167C439.011 207.167 438.752 207.1 438.52 206.966L-15.5759 -55.206C-16.0399 -55.474 -16.3259 -55.9689 -16.3259 -56.5049V-176.355C-16.3259 -176.812 -16.1179 -177.244 -15.7599 -177.529C-15.4019 -177.814 -14.934 -177.92 -14.489 -177.817L634.219 -28.004C634.9 -27.847 635.382 -27.2409 635.382 -26.5429V93.3071C635.382 93.8431 635.096 94.338 634.632 94.606L440.02 206.965C439.788 207.099 439.529 207.167 439.27 207.167ZM-13.3259 -57.3709L439.27 203.935L632.382 92.4421V-25.3489L-13.3259 -174.469V-57.3709Z" fill="#8B16FC"/>
<path d="M685.779 -146.393V78.326L646.857 100.798V-34.033L607.934 -11.5611V123.27L581.986 138.251V3.41998L543.064 25.8919V160.723L517.115 175.704L517.111 40.8759L478.193 63.3449V198.176L439.27 220.648V-4.07111L685.779 -146.393Z" fill="#EAD5FE"/>
<path d="M439.27 222.148C439.011 222.148 438.752 222.081 438.52 221.947C438.056 221.679 437.77 221.184 437.77 220.648V-4.07109C437.77 -4.60709 438.056 -5.10204 438.52 -5.37004L685.029 -147.692C685.493 -147.96 686.065 -147.96 686.529 -147.692C686.993 -147.424 687.279 -146.929 687.279 -146.393V78.326C687.279 78.862 686.993 79.357 686.529 79.625L647.606 102.097C647.142 102.365 646.57 102.365 646.106 102.097C645.642 101.829 645.356 101.334 645.356 100.798V-31.4351L609.434 -10.6961V123.27C609.434 123.806 609.148 124.301 608.684 124.569L582.735 139.55C582.271 139.818 581.699 139.818 581.235 139.55C580.771 139.282 580.485 138.787 580.485 138.251V6.0179L544.563 26.758V160.723C544.563 161.259 544.277 161.754 543.813 162.022L517.865 177.003C517.401 177.271 516.829 177.271 516.365 177.003C515.901 176.735 515.615 176.24 515.615 175.704L515.61 43.473L479.692 64.2099V198.176C479.692 198.712 479.406 199.207 478.942 199.475L440.02 221.947C439.788 222.081 439.529 222.148 439.27 222.148ZM440.77 -3.205V218.05L476.692 197.31V63.3439C476.692 62.8079 476.978 62.313 477.442 62.045L516.36 39.576C516.824 39.308 517.396 39.308 517.86 39.576C518.324 39.844 518.61 40.339 518.61 40.875L518.615 173.106L541.563 159.857V25.8919C541.563 25.3559 541.849 24.861 542.313 24.593L581.235 2.12093C581.699 1.85293 582.271 1.85293 582.735 2.12093C583.199 2.38893 583.485 2.884 583.485 3.42V135.653L606.434 122.404V-11.5621C606.434 -12.0981 606.72 -12.593 607.184 -12.861L646.106 -35.3331C646.57 -35.6011 647.142 -35.6011 647.606 -35.3331C648.07 -35.0651 648.356 -34.5701 648.356 -34.0341V98.1989L684.279 77.4589V-143.796L440.77 -3.2061V-3.205Z" fill="#8B16FC"/>
<path d="M439.27 220.648L400.348 198.176V63.3449L361.425 40.873V175.704L335.507 160.741V25.874L296.554 3.41998V138.251L270.606 123.27V-11.5611L231.684 -34.033V100.798L205.735 85.817V-49.0151L166.813 -71.4871V63.3449L140.865 48.364V-86.4681L101.942 -108.94V25.8919L75.994 10.91V-123.921L37.0711 -146.393V-11.5611L11.123 -26.543V-161.374L-27.7999 -183.846V-49.0151L-66.7219 -71.4871V-296.206L439.27 -4.07111V220.648Z" fill="white"/>
<path d="M439.27 222.148C439.011 222.148 438.752 222.081 438.52 221.947L399.597 199.475C399.133 199.207 398.847 198.712 398.847 198.176V64.21L362.925 43.47V175.703C362.925 176.239 362.639 176.734 362.175 177.002C361.711 177.27 361.139 177.27 360.675 177.002L334.757 162.038C334.293 161.77 334.007 161.275 334.007 160.739V26.739L298.054 6.01404V138.249C298.054 138.785 297.768 139.28 297.304 139.548C296.84 139.816 296.268 139.816 295.804 139.548L269.856 124.567C269.392 124.299 269.106 123.804 269.106 123.268V-10.698L233.184 -31.437V100.796C233.184 101.332 232.898 101.827 232.434 102.095C231.97 102.363 231.398 102.363 230.934 102.095L204.986 87.114C204.522 86.846 204.236 86.3509 204.236 85.8149V-48.15L168.314 -68.89V63.343C168.314 63.879 168.028 64.374 167.564 64.642C167.1 64.91 166.528 64.91 166.064 64.642L140.116 49.661C139.652 49.393 139.366 48.8981 139.366 48.3621V-85.604L103.443 -106.344V25.889C103.443 26.425 103.157 26.92 102.693 27.188C102.229 27.456 101.657 27.456 101.193 27.188L75.245 12.207C74.781 11.939 74.495 11.444 74.495 10.908V-123.057L38.572 -143.797V-11.564C38.572 -11.028 38.286 -10.533 37.822 -10.265C37.358 -9.99701 36.786 -9.99701 36.322 -10.265L10.374 -25.246C9.91002 -25.514 9.62402 -26.009 9.62402 -26.545V-160.51L-26.298 -181.25V-49.017C-26.298 -48.481 -26.584 -47.986 -27.048 -47.718C-27.512 -47.45 -28.084 -47.45 -28.548 -47.718L-67.47 -70.19C-67.934 -70.458 -68.22 -70.953 -68.22 -71.489V-296.208C-68.22 -296.744 -67.934 -297.239 -67.47 -297.507C-67.006 -297.775 -66.434 -297.775 -65.97 -297.507L440.022 -5.37195C440.486 -5.10395 440.772 -4.609 440.772 -4.073V220.646C440.772 221.182 440.486 221.677 440.022 221.945C439.79 222.079 439.531 222.146 439.272 222.146L439.27 222.148ZM401.847 197.31L437.77 218.05V-3.20496L-65.222 -293.608V-72.353L-29.3 -51.613V-183.846C-29.3 -184.382 -29.014 -184.877 -28.55 -185.145C-28.086 -185.413 -27.514 -185.413 -27.05 -185.145L11.872 -162.673C12.336 -162.405 12.622 -161.91 12.622 -161.374V-27.4091L35.57 -14.16V-146.393C35.57 -146.929 35.856 -147.424 36.32 -147.692C36.784 -147.96 37.356 -147.96 37.82 -147.692L76.743 -125.22C77.207 -124.952 77.493 -124.457 77.493 -123.921V10.0439L100.441 23.293V-108.94C100.441 -109.476 100.727 -109.971 101.191 -110.239C101.655 -110.507 102.227 -110.507 102.691 -110.239L141.614 -87.767C142.078 -87.499 142.364 -87.004 142.364 -86.468V47.498L165.312 60.7469V-71.486C165.312 -72.022 165.598 -72.517 166.062 -72.785C166.526 -73.053 167.098 -73.053 167.562 -72.785L206.484 -50.313C206.948 -50.045 207.234 -49.55 207.234 -49.014V84.952L230.182 98.201V-34.032C230.182 -34.568 230.468 -35.0631 230.932 -35.3311C231.396 -35.5991 231.968 -35.5991 232.432 -35.3311L271.354 -12.859C271.818 -12.591 272.104 -12.0961 272.104 -11.5601V122.406L295.052 135.655V3.422C295.052 2.886 295.338 2.39105 295.801 2.12305C296.265 1.85505 296.837 1.85505 297.301 2.12305L336.254 24.577C336.718 24.845 337.005 25.34 337.005 25.877V159.878L359.923 173.11V40.877C359.923 40.341 360.209 39.846 360.673 39.578C361.137 39.31 361.709 39.31 362.173 39.578L401.095 62.05C401.559 62.318 401.845 62.813 401.845 63.349V197.315L401.847 197.31Z" fill="#8B16FC"/>
<path d="M581.986 3.42017V-41.5239L543.064 -19.0519V25.8921L581.986 3.42017Z" fill="#EAD5FE"/>
<path d="M543.064 27.392C542.805 27.392 542.546 27.3251 542.314 27.1911C541.85 26.9231 541.564 26.428 541.564 25.892V-19.0519C541.564 -19.5879 541.85 -20.0829 542.314 -20.3509L581.236 -42.8229C581.7 -43.0909 582.272 -43.0909 582.736 -42.8229C583.2 -42.5549 583.486 -42.06 583.486 -41.524V3.42012C583.486 3.95612 583.2 4.45107 582.736 4.71907L543.814 27.1911C543.582 27.3251 543.323 27.392 543.064 27.392ZM544.564 -18.186V23.294L580.486 2.55403V-38.926L544.564 -18.186Z" fill="#8B16FC"/>
<path d="M646.857 100.798L633.883 93.3068V-26.5432L646.857 -34.0332V100.798Z" fill="#F4EAFF"/>
<path d="M646.857 102.298C646.598 102.298 646.339 102.231 646.107 102.097L633.133 94.6069C632.669 94.3389 632.383 93.8438 632.383 93.3078V-26.5422C632.383 -27.0782 632.669 -27.5731 633.133 -27.8411L646.107 -35.3312C646.571 -35.5992 647.143 -35.5992 647.607 -35.3312C648.071 -35.0632 648.357 -34.5682 648.357 -34.0322V100.799C648.357 101.335 648.071 101.83 647.607 102.098C647.375 102.232 647.116 102.298 646.857 102.298ZM635.383 92.4418L645.357 98.1998V-31.4352L635.383 -25.6772V92.4418Z" fill="#8B16FC"/>
<path d="M517.111 40.8757L517.115 -4.07129L478.193 18.4008V63.3447L517.111 40.8757Z" fill="#EAD5FE"/>
<path d="M478.193 64.8447C477.934 64.8447 477.675 64.7777 477.443 64.6437C476.979 64.3757 476.693 63.8807 476.693 63.3447V18.4007C476.693 17.8647 476.979 17.3698 477.443 17.1018L516.366 -5.37029C516.83 -5.63829 517.402 -5.63829 517.866 -5.37029C518.33 -5.10229 518.616 -4.60734 518.616 -4.07134L518.611 40.8757C518.611 41.4117 518.325 41.9068 517.861 42.1748L478.943 64.6437C478.711 64.7777 478.452 64.8447 478.193 64.8447ZM479.693 19.2667V60.7467L515.611 40.0097L515.615 -1.47234L479.693 19.2667Z" fill="#8B16FC"/>
<path d="M517.115 175.704L504.141 168.214V48.364L517.111 40.876L517.115 175.704Z" fill="#F4EAFF"/>
<path d="M517.115 177.205C516.856 177.205 516.597 177.138 516.365 177.004L503.391 169.513C502.927 169.245 502.641 168.75 502.641 168.214V48.364C502.641 47.828 502.927 47.3329 503.391 47.0649L516.361 39.577C516.825 39.309 517.397 39.309 517.861 39.577C518.325 39.845 518.611 40.3399 518.611 40.8759L518.616 175.705C518.616 176.241 518.33 176.736 517.866 177.004C517.634 177.138 517.375 177.205 517.116 177.205H517.115ZM505.641 167.348L515.615 173.107L515.61 43.4739L505.64 49.2299L505.641 167.348Z" fill="#8B16FC"/>
<path d="M581.986 138.251L569.012 130.761V10.9099L581.986 3.41992V138.251Z" fill="#F4EAFF"/>
<path d="M581.986 139.751C581.727 139.751 581.468 139.684 581.236 139.55L568.262 132.06C567.798 131.792 567.512 131.297 567.512 130.761V10.911C567.512 10.375 567.798 9.88001 568.262 9.61201L581.236 2.1219C581.7 1.8539 582.272 1.8539 582.736 2.1219C583.2 2.3899 583.486 2.88497 583.486 3.42097V138.252C583.486 138.788 583.2 139.283 582.736 139.551C582.504 139.685 582.245 139.751 581.986 139.751ZM570.512 129.894L580.486 135.652V6.01692L570.512 11.775V129.893V129.894Z" fill="#8B16FC"/>
<path d="M400.348 63.3447L361.425 40.8728V-4.07129L400.348 18.4008V63.3447Z" fill="white"/>
<path d="M400.348 64.8447C400.089 64.8447 399.83 64.7777 399.598 64.6437L360.676 42.1717C360.212 41.9037 359.926 41.4088 359.926 40.8728V-4.07134C359.926 -4.60734 360.212 -5.10229 360.676 -5.37029C361.14 -5.63829 361.712 -5.63829 362.176 -5.37029L401.098 17.1018C401.562 17.3698 401.848 17.8647 401.848 18.4007V63.3447C401.848 63.8807 401.562 64.3757 401.098 64.6437C400.866 64.7777 400.607 64.8447 400.348 64.8447ZM362.926 40.0067L398.848 60.7467V19.2667L362.926 -1.47332V40.0067Z" fill="#8B16FC"/>
<path d="M361.425 175.704L374.399 168.214V48.364L361.425 40.873V175.704Z" fill="white"/>
<path d="M361.425 177.205C361.166 177.205 360.907 177.138 360.675 177.004C360.211 176.736 359.925 176.241 359.925 175.705V40.8731C359.925 40.3371 360.211 39.842 360.675 39.574C361.139 39.306 361.711 39.306 362.175 39.574L375.149 47.065C375.613 47.333 375.899 47.8281 375.899 48.3641V168.214C375.899 168.75 375.613 169.245 375.149 169.513L362.175 177.004C361.943 177.138 361.684 177.205 361.425 177.205ZM362.925 43.4721V173.107L372.899 167.348V49.2301L362.925 43.471V43.4721Z" fill="#8B16FC"/>
<path d="M335.507 25.8741L296.554 3.42017V-41.5239L335.477 -19.0519L335.507 25.8741Z" fill="white"/>
<path d="M335.507 27.3741C335.248 27.3741 334.99 27.307 334.758 27.174L295.805 4.72004C295.34 4.45204 295.054 3.95712 295.054 3.42012V-41.524C295.054 -42.06 295.34 -42.5549 295.804 -42.8229C296.268 -43.0909 296.84 -43.0909 297.304 -42.8229L336.226 -20.3509C336.69 -20.0829 336.976 -19.5889 336.976 -19.0529L337.006 25.8731C337.006 26.4091 336.721 26.904 336.257 27.173C336.025 27.307 335.765 27.3741 335.506 27.3741H335.507ZM298.054 2.55305L334.005 23.277L333.977 -18.186L298.054 -38.926V2.55305Z" fill="#8B16FC"/>
<path d="M296.554 138.251L309.529 130.761V10.8989L296.554 3.41992V138.251Z" fill="white"/>
<path d="M296.555 139.751C296.296 139.751 296.037 139.684 295.805 139.55C295.341 139.282 295.055 138.787 295.055 138.251V3.41999C295.055 2.88399 295.341 2.38892 295.804 2.12092C296.268 1.85292 296.84 1.85292 297.304 2.12092L310.278 9.59993C310.743 9.86793 311.029 10.363 311.029 10.9V130.762C311.029 131.298 310.743 131.793 310.279 132.061L297.305 139.551C297.073 139.685 296.814 139.751 296.555 139.751ZM298.055 6.01594V135.653L308.029 129.895V11.7659L298.055 6.01594Z" fill="#8B16FC"/>
<path d="M231.684 100.798L244.658 93.3068V-26.5432L231.684 -34.0332V100.798Z" fill="white"/>
<path d="M231.684 102.298C231.425 102.298 231.166 102.231 230.934 102.097C230.47 101.829 230.184 101.334 230.184 100.798V-34.0331C230.184 -34.5691 230.47 -35.0642 230.934 -35.3322C231.398 -35.6002 231.97 -35.6002 232.434 -35.3322L245.408 -27.8422C245.872 -27.5742 246.158 -27.0791 246.158 -26.5431V93.3068C246.158 93.8428 245.872 94.3378 245.408 94.6058L232.434 102.096C232.202 102.23 231.943 102.298 231.684 102.298ZM233.184 -31.4352V98.1998L243.158 92.4418V-25.6762L233.184 -31.4341V-31.4352Z" fill="#8B16FC"/>
<path d="M166.813 63.3452L179.787 55.8542V-63.9958L166.813 -71.4868V63.3452Z" fill="white"/>
<path d="M166.813 64.8452C166.554 64.8452 166.295 64.7782 166.063 64.6442C165.599 64.3762 165.313 63.8812 165.313 63.3452V-71.4868C165.313 -72.0228 165.599 -72.5178 166.063 -72.7858C166.527 -73.0538 167.099 -73.0538 167.563 -72.7858L180.537 -65.2948C181.001 -65.0268 181.287 -64.5318 181.287 -63.9958V55.8542C181.287 56.3902 181.001 56.8852 180.537 57.1532L167.563 64.6442C167.331 64.7782 167.072 64.8452 166.813 64.8452ZM168.313 -68.8878V60.7471L178.287 54.9882V-63.1298L168.313 -68.8878Z" fill="#8B16FC"/>
<path d="M101.942 25.892L114.916 18.4011V-101.449L101.942 -108.94V25.892Z" fill="white"/>
<path d="M101.942 27.392C101.683 27.392 101.424 27.3251 101.192 27.1911C100.728 26.9231 100.442 26.428 100.442 25.892V-108.94C100.442 -109.476 100.728 -109.971 101.192 -110.239C101.656 -110.507 102.228 -110.507 102.692 -110.239L115.666 -102.748C116.13 -102.48 116.416 -101.985 116.416 -101.449V18.4011C116.416 18.9371 116.13 19.432 115.666 19.7L102.692 27.1911C102.46 27.3251 102.201 27.392 101.942 27.392ZM103.442 -106.341V23.294L113.416 17.5361V-100.582L103.442 -106.341Z" fill="#8B16FC"/>
<path d="M633.883 93.3068V63.3447L607.934 78.3258V108.289L633.883 93.3068Z" fill="#EAD5FE"/>
<path d="M607.934 109.789C607.675 109.789 607.416 109.722 607.184 109.588C606.72 109.32 606.434 108.825 606.434 108.289V78.3258C606.434 77.7898 606.72 77.2947 607.184 77.0267L633.132 62.0457C633.596 61.7777 634.168 61.7777 634.632 62.0457C635.096 62.3137 635.382 62.8087 635.382 63.3447V93.3077C635.382 93.8437 635.096 94.3388 634.632 94.6068L608.684 109.588C608.452 109.722 608.193 109.789 607.934 109.789ZM609.434 79.1917V105.69L632.382 92.4407V65.9417L609.434 79.1917Z" fill="#8B16FC"/>
<path d="M504.141 168.214V138.251L478.193 153.233V183.195L504.141 168.214Z" fill="#EAD5FE"/>
<path d="M478.193 184.695C477.934 184.695 477.675 184.628 477.443 184.494C476.979 184.226 476.693 183.731 476.693 183.195V153.233C476.693 152.697 476.979 152.202 477.443 151.934L503.391 136.953C503.855 136.685 504.427 136.685 504.891 136.953C505.355 137.221 505.641 137.716 505.641 138.252V168.215C505.641 168.751 505.355 169.246 504.891 169.514L478.943 184.495C478.711 184.629 478.452 184.696 478.193 184.696V184.695ZM479.693 154.099V180.597L502.641 167.348V140.849L479.693 154.099Z" fill="#8B16FC"/>
<path d="M400.348 183.195V153.233L374.399 138.251V168.214L400.348 183.195Z" fill="white"/>
<path d="M400.348 184.695C400.089 184.695 399.83 184.628 399.598 184.494L373.65 169.513C373.186 169.245 372.9 168.75 372.9 168.214V138.251C372.9 137.715 373.186 137.22 373.65 136.952C374.114 136.684 374.686 136.684 375.15 136.952L401.098 151.933C401.562 152.201 401.848 152.696 401.848 153.232V183.194C401.848 183.73 401.562 184.225 401.098 184.493C400.866 184.627 400.607 184.695 400.348 184.695ZM375.9 167.348L398.848 180.597V154.099L375.9 140.85V167.348Z" fill="#8B16FC"/>
<path d="M270.606 108.289V78.3258L244.658 63.3447V93.3068L270.606 108.289Z" fill="white"/>
<path d="M270.606 109.789C270.347 109.789 270.088 109.722 269.856 109.588L243.908 94.6068C243.444 94.3388 243.158 93.8437 243.158 93.3077V63.3447C243.158 62.8087 243.444 62.3137 243.908 62.0457C244.372 61.7777 244.944 61.7777 245.408 62.0457L271.356 77.0267C271.82 77.2947 272.106 77.7898 272.106 78.3258V108.289C272.106 108.825 271.82 109.32 271.356 109.588C271.124 109.722 270.865 109.789 270.606 109.789ZM246.158 92.4417L269.106 105.691V79.1927L246.158 65.9437V92.4417Z" fill="#8B16FC"/>
<path d="M140.865 33.382V3.42004L114.916 -11.561V18.401L140.865 33.382Z" fill="white"/>
<path d="M140.865 34.8819C140.606 34.8819 140.347 34.815 140.115 34.681L114.166 19.6999C113.702 19.4319 113.416 18.937 113.416 18.401V-11.5621C113.416 -12.0981 113.702 -12.593 114.166 -12.861C114.63 -13.129 115.202 -13.129 115.666 -12.861L141.615 2.11995C142.079 2.38795 142.365 2.8829 142.365 3.4189V33.3809C142.365 33.9169 142.079 34.412 141.615 34.68C141.383 34.814 141.124 34.8819 140.865 34.8819ZM116.416 17.535L139.365 30.784V4.28596L116.416 -8.96306V17.535Z" fill="#8B16FC"/>
<path d="M171.527 151.186L198.527 228.989L193.554 236.094L205.348 256.984L202.648 264.657L190.143 274.747L182.327 277.589L164.138 278.726L149.074 273.894L135.574 262.384L136.285 254.568L147.796 235.668L144.385 225.578L169.68 150.972L171.527 151.186Z" fill="#EAD5FE" stroke="#8B16FC" stroke-width="3" stroke-miterlimit="10"/>
<path d="M185.778 239.462L193.56 235.492C197.53 233.586 197.888 229.753 197.848 227.075C197.83 225.879 197.142 224.023 196.851 223.188L171.885 151.561C171.373 150.092 169.289 150.112 168.805 151.59L145.359 223.118C144.182 226.71 144.773 230.708 147.137 233.657C150.595 237.971 157.196 243.031 168.959 242.471" stroke="#8B16FC" stroke-width="3" stroke-miterlimit="10"/>
<path d="M193.56 235.492L203.273 253.184C205.628 257.474 204.616 262.802 200.894 265.979C194.938 271.064 188.637 278.687 169.739 278.528C156.285 278.415 145.337 271.851 138.995 266.078C135.343 262.754 134.583 257.306 137.173 253.101L148.364 235.099" stroke="#8B16FC" stroke-width="3" stroke-miterlimit="10"/>
<path d="M174.185 278.369C174.185 278.369 174.669 296.004 174.503 296.155C169.626 300.588 165.565 296.183 165.565 296.183L165.832 278.402L174.185 278.369Z" fill="#BF7DFD" stroke="#8B16FC" stroke-width="3" stroke-miterlimit="10"/>
<path d="M192.904 245.292V320.199L296.698 260.274V185.367L192.904 245.292Z" fill="white"/>
<path d="M192.154 321.498C191.69 321.23 191.404 320.735 191.404 320.199V245.293C191.404 244.757 191.69 244.262 192.154 243.994L295.947 184.069C296.411 183.801 296.983 183.801 297.447 184.069C297.911 184.337 298.197 184.832 298.197 185.368V260.275C298.197 260.811 297.911 261.306 297.447 261.574L193.654 321.499C193.422 321.633 193.163 321.7 192.904 321.7C192.645 321.7 192.386 321.632 192.154 321.498ZM295.197 187.966L194.404 246.159V317.601L295.197 259.408V187.966Z" fill="#8B16FC"/>
<path d="M348.594 215.33V305.218L296.698 275.255V185.367L348.594 215.33Z" fill="#EAD5FE"/>
<path d="M347.844 306.517L295.947 276.554C295.483 276.286 295.197 275.791 295.197 275.255V185.367C295.197 184.831 295.483 184.336 295.947 184.068C296.411 183.8 296.983 183.8 297.447 184.068L349.344 214.031C349.808 214.299 350.094 214.794 350.094 215.33V305.218C350.094 305.754 349.808 306.249 349.344 306.517C349.112 306.651 348.853 306.718 348.594 306.718C348.335 306.718 348.076 306.651 347.844 306.517ZM298.197 187.966V274.39L347.094 302.621V216.197L298.197 187.967V187.966Z" fill="#8B16FC"/>
<path d="M348.594 215.33L296.698 185.367L192.904 245.292L244.801 275.255L348.594 215.33Z" fill="white"/>
<path d="M244.051 276.554L192.155 246.592C191.691 246.324 191.405 245.829 191.405 245.293C191.405 244.757 191.691 244.262 192.155 243.994L295.948 184.069C296.412 183.801 296.984 183.801 297.448 184.069L349.345 214.032C349.809 214.3 350.095 214.795 350.095 215.331C350.095 215.867 349.809 216.362 349.345 216.63L245.551 276.555C245.319 276.689 245.06 276.756 244.801 276.756C244.542 276.756 244.283 276.689 244.051 276.555V276.554ZM296.698 187.099L195.905 245.292L244.801 273.523L345.595 215.33L296.698 187.099Z" fill="#8B16FC"/>
<path d="M309.672 267.764L296.698 260.274L192.904 320.199L205.879 327.689L309.672 267.764Z" fill="white"/>
<path d="M205.129 328.989L192.155 321.498C191.691 321.23 191.405 320.735 191.405 320.199C191.405 319.663 191.691 319.168 192.155 318.9L295.948 258.975C296.412 258.707 296.984 258.707 297.448 258.975L310.422 266.466C310.886 266.734 311.172 267.229 311.172 267.765C311.172 268.301 310.886 268.796 310.422 269.064L206.629 328.989C206.397 329.123 206.138 329.19 205.879 329.19C205.62 329.19 205.361 329.123 205.129 328.989ZM296.698 262.006L195.905 320.199L205.879 325.958L306.672 267.765L296.698 262.006Z" fill="#8B16FC"/>
<path d="M309.672 284.246C310.5 284.246 311.172 283.574 311.172 282.746V267.765C311.172 266.937 310.5 266.265 309.672 266.265C308.844 266.265 308.172 266.937 308.172 267.765V282.746C308.172 283.574 308.844 284.246 309.672 284.246Z" fill="#8B16FC"/>
<path d="M257.775 314.208C258.603 314.208 259.275 313.536 259.275 312.708V297.727C259.275 296.899 258.603 296.227 257.775 296.227C256.947 296.227 256.275 296.899 256.275 297.727V312.708C256.275 313.536 256.947 314.208 257.775 314.208Z" fill="#8B16FC"/>
<path d="M192.904 336.68C193.732 336.68 194.404 336.008 194.404 335.18V320.199C194.404 319.371 193.732 318.699 192.904 318.699C192.076 318.699 191.404 319.371 191.404 320.199V335.18C191.404 336.008 192.076 336.68 192.904 336.68Z" fill="#8B16FC"/>
<path d="M205.879 344.171C206.707 344.171 207.379 343.499 207.379 342.671V252.783C207.379 251.955 206.707 251.283 205.879 251.283C205.051 251.283 204.379 251.955 204.379 252.783V342.671C204.379 343.499 205.051 344.171 205.879 344.171Z" fill="#8B16FC"/>
<path d="M1559.54 -382.618L203.996 408.397L-279.634 95.6738" stroke="#8B16FC" stroke-width="3" stroke-linecap="round" stroke-linejoin="round"/>
<path d="M361.501 405.517C360.31 404.829 356.197 402.455 355.019 401.775C351.439 399.708 345.636 403.059 342.056 409.259C338.476 415.459 338.476 422.16 342.056 424.227C343.247 424.915 347.36 427.289 348.538 427.969C352.118 430.036 357.921 426.686 361.501 420.485C365.081 414.286 365.081 407.584 361.501 405.517Z" fill="#8B16FC"/>
<path d="M350.923 430.085C349.792 430.085 348.733 429.813 347.787 429.267L341.306 425.525C339.091 424.246 337.871 421.677 337.871 418.292C337.871 415.206 338.896 411.731 340.757 408.508C342.618 405.285 345.115 402.66 347.788 401.116C350.72 399.423 353.555 399.195 355.77 400.474L362.251 404.216C364.466 405.495 365.686 408.064 365.686 411.449C365.686 414.535 364.661 418.01 362.8 421.233C360.939 424.457 358.442 427.082 355.769 428.625C354.089 429.595 352.441 430.085 350.923 430.085ZM352.632 402.659C351.359 402.659 350.077 403.259 349.287 403.715C347.063 404.999 344.956 407.234 343.354 410.008C341.752 412.782 340.87 415.724 340.87 418.292C340.87 419.606 341.121 421.955 342.805 422.926L349.286 426.668C350.97 427.641 353.13 426.684 354.268 426.027C356.492 424.743 358.599 422.508 360.2 419.733C361.802 416.959 362.684 414.017 362.684 411.449C362.684 410.135 362.433 407.786 360.749 406.814L354.268 403.072C353.753 402.774 353.192 402.658 352.631 402.658L352.632 402.659Z" fill="#8B16FC"/>
<path d="M504.065 323.164C502.874 322.476 498.761 320.102 497.583 319.422C494.003 317.355 488.2 320.706 484.62 326.906C481.04 333.106 481.04 339.807 484.62 341.874C485.811 342.562 489.924 344.936 491.102 345.616C494.682 347.683 500.485 344.333 504.065 338.132C507.645 331.933 507.645 325.231 504.065 323.164Z" fill="#8B16FC"/>
<path d="M493.487 347.732C492.356 347.732 491.297 347.461 490.351 346.914L483.87 343.172C481.655 341.894 480.435 339.325 480.435 335.94C480.435 332.854 481.46 329.379 483.321 326.156C485.182 322.933 487.679 320.308 490.352 318.764C493.284 317.071 496.118 316.843 498.334 318.122L504.815 321.864C507.03 323.143 508.25 325.711 508.25 329.097C508.25 332.183 507.225 335.658 505.364 338.881C503.503 342.104 501.006 344.729 498.333 346.273C496.653 347.243 495.005 347.732 493.487 347.732ZM495.196 320.306C493.923 320.306 492.641 320.906 491.852 321.362C489.628 322.646 487.521 324.881 485.92 327.655C484.318 330.429 483.436 333.371 483.436 335.939C483.436 337.253 483.687 339.602 485.371 340.574L491.852 344.316C493.536 345.29 495.696 344.332 496.834 343.675C499.058 342.391 501.165 340.156 502.766 337.381C504.368 334.607 505.25 331.665 505.25 329.097C505.25 327.783 504.999 325.434 503.315 324.462L496.833 320.72C496.318 320.422 495.758 320.306 495.196 320.306Z" fill="#8B16FC"/>
<path d="M299.315 309.694L467.979 212.316L519.884 242.283L519.875 317.185L325.263 429.544L273.366 399.582V377.11L299.315 354.638V309.694Z" fill="white"/>
<path d="M325.263 431.044C325.004 431.044 324.745 430.977 324.513 430.843L272.616 400.881C272.152 400.613 271.866 400.118 271.866 399.582V377.11C271.866 376.675 272.055 376.261 272.384 375.976L297.814 353.953V309.694C297.814 309.158 298.1 308.663 298.564 308.395L467.228 211.017C467.692 210.749 468.264 210.749 468.728 211.017L520.633 240.984C521.097 241.252 521.383 241.747 521.383 242.283L521.375 317.185C521.375 317.721 521.089 318.216 520.625 318.484L326.013 430.843C325.781 430.977 325.522 431.044 325.263 431.044ZM274.866 398.715L325.263 427.812L518.375 316.319L518.383 243.149L467.978 214.048L300.814 310.56V354.638C300.814 355.073 300.625 355.487 300.296 355.772L274.866 377.795V398.715Z" fill="#8B16FC"/>
<path d="M299.315 324.675L351.211 354.638V384.6L299.315 354.638V324.675Z" fill="#F4EAFF"/>
<path d="M351.211 386.1C350.952 386.1 350.693 386.033 350.461 385.899L298.564 355.937C298.1 355.67 297.814 355.174 297.814 354.638V324.676C297.814 324.14 298.1 323.645 298.564 323.377C299.028 323.109 299.6 323.109 300.064 323.377L351.961 353.34C352.425 353.608 352.711 354.103 352.711 354.639V384.601C352.711 385.137 352.425 385.632 351.961 385.9C351.729 386.034 351.47 386.1 351.211 386.1ZM300.814 353.771L349.711 382.002V355.504L300.814 327.274V353.771Z" fill="#8B16FC"/>
<path d="M364.185 407.072V339.656L390.134 324.675V392.091L364.185 407.072Z" fill="#EAD5FE"/>
<path d="M364.185 408.572C363.926 408.572 363.667 408.505 363.435 408.371C362.971 408.103 362.685 407.608 362.685 407.072V339.656C362.685 339.12 362.971 338.625 363.435 338.357L389.383 323.376C389.847 323.108 390.419 323.108 390.883 323.376C391.347 323.644 391.633 324.139 391.633 324.675V392.091C391.633 392.627 391.347 393.122 390.883 393.39L364.935 408.371C364.703 408.505 364.444 408.572 364.185 408.572ZM365.685 340.522V404.474L388.633 391.225V327.274L365.685 340.522Z" fill="#8B16FC"/>
<path d="M377.166 401.085C376.338 401.085 375.666 400.414 375.666 399.585V332.165C375.666 331.337 376.338 330.665 377.166 330.665C377.994 330.665 378.666 331.337 378.666 332.165V399.585C378.666 400.414 377.994 401.085 377.166 401.085Z" fill="#8B16FC"/>
<path d="M286.34 407.072V392.091L312.289 407.072V422.053L286.34 407.072Z" fill="white"/>
<path d="M312.289 423.553C312.03 423.553 311.771 423.486 311.539 423.352L285.591 408.371C285.127 408.103 284.841 407.608 284.841 407.072V392.091C284.841 391.555 285.127 391.06 285.591 390.792C286.055 390.523 286.627 390.523 287.091 390.792L313.039 405.773C313.503 406.041 313.789 406.536 313.789 407.072V422.053C313.789 422.589 313.503 423.084 313.039 423.352C312.807 423.486 312.548 423.553 312.289 423.553ZM287.841 406.206L310.789 419.455V407.938L287.841 394.688V406.205V406.206Z" fill="#8B16FC"/>
<path d="M403.108 317.185V347.147L429.047 332.171L429.056 302.203L403.108 317.185Z" fill="#EAD5FE"/>
<path d="M403.108 348.647C402.849 348.647 402.59 348.58 402.358 348.446C401.894 348.178 401.608 347.683 401.608 347.147V317.185C401.608 316.649 401.894 316.154 402.358 315.886L428.306 300.905C428.77 300.637 429.342 300.637 429.806 300.905C430.27 301.173 430.556 301.668 430.556 302.204L430.546 332.172C430.546 332.708 430.26 333.203 429.796 333.471L403.857 348.446C403.625 348.58 403.367 348.647 403.108 348.647ZM404.608 318.051V344.549L427.547 331.305L427.555 304.802L404.608 318.051Z" fill="#8B16FC"/>
<path d="M442.03 294.713V324.675L467.969 309.699L467.979 279.731L442.03 294.713Z" fill="#EAD5FE"/>
<path d="M442.03 326.175C441.771 326.175 441.512 326.108 441.28 325.974C440.816 325.706 440.53 325.211 440.53 324.675V294.712C440.53 294.176 440.816 293.681 441.28 293.413L467.228 278.432C467.692 278.164 468.264 278.164 468.728 278.432C469.192 278.7 469.478 279.196 469.478 279.731L469.468 309.699C469.468 310.235 469.182 310.73 468.718 310.998L442.779 325.974C442.547 326.108 442.288 326.175 442.029 326.175H442.03ZM443.53 295.578V322.077L466.469 308.833L466.478 282.33L443.53 295.578Z" fill="#8B16FC"/>
<path d="M480.953 272.241V302.203L506.892 287.227L506.901 257.259L480.953 272.241Z" fill="#EAD5FE"/>
<path d="M480.953 303.703C480.694 303.703 480.435 303.636 480.203 303.502C479.739 303.234 479.453 302.739 479.453 302.203V272.24C479.453 271.704 479.739 271.209 480.203 270.941L506.151 255.96C506.615 255.692 507.187 255.692 507.651 255.96C508.115 256.228 508.401 256.723 508.401 257.259L508.391 287.227C508.391 287.763 508.105 288.258 507.641 288.526L481.702 303.502C481.47 303.636 481.212 303.703 480.953 303.703ZM482.453 273.106V299.605L505.392 286.361L505.4 259.858L482.452 273.107L482.453 273.106Z" fill="#8B16FC"/>
<path opacity="0.38" d="M1664.23 -320.755L208.942 533.354L-340.321 193.176" stroke="#8B16FC" stroke-width="3" stroke-linecap="round" stroke-linejoin="round"/>
<path opacity="0.38" d="M1697.55 -325.514L208.763 548.203L-340.5 208.025" stroke="#8B16FC" stroke-width="3" stroke-linecap="round" stroke-linejoin="round"/>
<path d="M533.554 209.664H269.849V431.806H533.554V209.664Z" stroke="#FF444F" stroke-width="8" stroke-linecap="round" stroke-linejoin="round"/>
<path d="M359.876 162.384H268.912V210.426H359.876V162.384Z" fill="#FF444F" stroke="#FF444F" stroke-width="6" stroke-linecap="round" stroke-linejoin="round"/>
<path d="M281.161 172.405H287.166V182.05H287.354C288.005 181.224 288.843 180.585 289.869 180.135C290.894 179.686 292.008 179.46 293.209 179.46C298.713 179.46 301.466 182.638 301.466 188.992C301.466 192.22 300.577 194.691 298.801 196.405C297.023 198.12 294.498 198.977 291.22 198.977C289.667 198.977 288.267 198.826 287.016 198.526C285.765 198.225 284.852 197.875 284.276 197.475V174.918H281.161V172.405ZM292.833 181.975C291.332 181.975 290.118 182.4 289.192 183.25C288.266 184.1 287.592 185.302 287.166 186.854V195.485C287.742 195.786 288.429 196.024 289.231 196.198C290.031 196.374 290.87 196.461 291.746 196.461C292.746 196.461 293.653 196.317 294.466 196.029C295.28 195.742 295.973 195.291 296.549 194.679C297.125 194.065 297.569 193.285 297.882 192.333C298.194 191.382 298.351 190.256 298.351 188.955C298.351 188.004 298.25 187.104 298.05 186.252C297.85 185.403 297.531 184.658 297.094 184.019C296.656 183.381 296.086 182.881 295.385 182.518C294.686 182.156 293.833 181.975 292.833 181.975Z" fill="white" stroke="white" stroke-width="2" stroke-miterlimit="10"/>
<path d="M317.19 179.911H322.556V192.708C322.556 193.934 322.631 195.11 322.78 196.237H325.295V198.676H320.266L320.153 195.486H320.003C319.354 196.563 318.493 197.438 317.421 198.113C316.347 198.79 315.051 199.127 313.528 199.127C312.381 199.127 311.402 198.996 310.591 198.733C309.78 198.47 309.113 198.014 308.589 197.363C308.064 196.712 307.677 195.844 307.428 194.755C307.178 193.666 307.054 192.31 307.054 190.682V182.426H304.539V179.911H310.018V190.082C310.018 191.108 310.062 192.028 310.149 192.84C310.236 193.654 310.415 194.341 310.688 194.905C310.961 195.469 311.366 195.895 311.899 196.182C312.432 196.469 313.147 196.613 314.04 196.613C315.33 196.613 316.454 196.188 317.41 195.338C318.366 194.488 319.091 193.423 319.588 192.148V182.428H317.187V179.913L317.19 179.911Z" fill="white" stroke="white" stroke-width="2" stroke-miterlimit="10"/>
<path d="M342.523 193.609C342.523 192.809 342.21 192.19 341.587 191.752C340.964 191.314 340.191 190.964 339.267 190.701C338.345 190.438 337.34 190.194 336.256 189.968C335.17 189.744 334.165 189.443 333.243 189.069C332.319 188.693 331.546 188.186 330.923 187.548C330.298 186.91 329.987 186.016 329.987 184.865C329.987 183.915 330.193 183.101 330.607 182.426C331.019 181.749 331.565 181.194 332.239 180.755C332.913 180.316 333.702 179.991 334.603 179.779C335.504 179.567 336.442 179.46 337.417 179.46C339.169 179.46 340.676 179.68 341.94 180.117C343.203 180.555 344.211 181.012 344.961 181.487L343.764 183.851C342.941 183.402 342.049 182.97 341.088 182.558C340.127 182.144 338.924 181.938 337.478 181.938C336.93 181.938 336.386 181.995 335.85 182.108C335.314 182.219 334.828 182.389 334.392 182.613C333.955 182.839 333.606 183.134 333.344 183.496C333.081 183.859 332.952 184.302 332.952 184.828C332.952 185.48 333.264 185.979 333.887 186.329C334.512 186.68 335.284 186.975 336.207 187.212C337.131 187.45 338.134 187.675 339.22 187.887C340.304 188.101 341.309 188.408 342.233 188.808C343.155 189.208 343.928 189.746 344.553 190.421C345.176 191.098 345.488 192.011 345.488 193.161C345.488 194.888 344.807 196.315 343.443 197.44C342.079 198.565 340.033 199.129 337.307 199.129C336.481 199.129 335.667 199.054 334.867 198.903C334.067 198.753 333.315 198.553 332.616 198.303C331.915 198.054 331.277 197.772 330.701 197.459C330.125 197.147 329.65 196.828 329.275 196.503L330.773 194.063C331.072 194.364 331.471 194.671 331.97 194.982C332.468 195.295 333.018 195.578 333.616 195.826C334.215 196.076 334.858 196.277 335.543 196.426C336.23 196.577 336.922 196.652 337.62 196.652C338.293 196.652 338.924 196.595 339.511 196.482C340.097 196.371 340.615 196.195 341.064 195.957C341.513 195.72 341.869 195.407 342.13 195.019C342.393 194.631 342.524 194.162 342.524 193.611L342.523 193.609Z" fill="white" stroke="white" stroke-width="2" stroke-miterlimit="10"/>
<path d="M678.557 132.468L712.492 151.519C712.826 151.707 713.119 151.939 713.374 152.225C715.616 154.746 727.05 167.754 727.05 170.853C727.05 173.506 726.864 182.681 726.779 186.721C726.754 187.929 726.099 189.026 725.053 189.631L628.5 245.451C627.441 246.063 626.137 246.07 625.072 245.47L582.013 221.195C580.926 220.582 580.253 219.431 580.253 218.183V206.797C580.253 205.616 580.848 204.521 581.844 203.887C587.807 200.086 608.543 186.78 609.612 184.909C610.748 182.921 623.252 166.206 625.506 163.196C625.738 162.886 628.687 159.554 628.976 159.297C642.719 147.116 664.661 136.644 670.204 134.31C673.02 133.124 674.781 132.501 675.854 132.174C676.76 131.897 677.729 132.003 678.556 132.467L678.557 132.468Z" fill="white" stroke="#8423E8" stroke-width="3" stroke-miterlimit="10"/>
<path d="M624.144 165.524L658.183 186.87L647.798 205.908L611.067 183.216L624.144 165.524Z" fill="#D1B3EF" stroke="#8423E8" stroke-width="3" stroke-miterlimit="10"/>
<path d="M623.979 165.232L656.705 185.28C657.795 185.948 658.173 187.351 657.566 188.476L649.227 203.928C648.575 205.137 647.044 205.556 645.867 204.847L611.173 183.972" stroke="#8423E8" stroke-width="3" stroke-miterlimit="10"/>
<path d="M589.622 224.888L589.103 212.951C589.057 211.896 590.192 211.204 591.109 211.728L614.557 225.127C614.975 225.366 615.233 225.811 615.233 226.292V239.881" stroke="#8423E8" stroke-width="3" stroke-miterlimit="10"/>
<path d="M695.244 207.003C695.244 207.003 700.866 216.685 710.548 212C722.493 206.22 716.17 195.446 716.17 195.446L695.244 207.002V207.003Z" fill="#8442C1" stroke="#8423E8" stroke-width="3" stroke-miterlimit="10"/>
<path d="M638.087 239.798C638.087 239.798 643.709 249.48 653.391 244.795C665.336 239.015 659.013 228.241 659.013 228.241L638.087 239.798Z" fill="#8442C1" stroke="#8423E8" stroke-width="3" stroke-miterlimit="10"/>
<path d="M733.835 127.027H576.967V253.154H733.835V127.027Z" stroke="#5EFFBE" stroke-width="8" stroke-linecap="round" stroke-linejoin="round"/>
<path d="M666.995 79.7471H576.031V127.789H666.995V79.7471Z" fill="#5EFFBE" stroke="#5EFFBE" stroke-width="6" stroke-linecap="round" stroke-linejoin="round"/>
<path d="M603.854 98.1511C603.275 97.9501 602.65 97.7811 601.983 97.6421C601.316 97.5031 600.655 97.4331 600 97.4331C597.531 97.4331 595.693 98.0141 594.485 99.1761C593.277 100.338 592.671 102.181 592.671 104.705C592.671 105.816 592.848 106.808 593.2 107.679C593.554 108.551 594.056 109.288 594.711 109.894C595.366 110.501 596.153 110.968 597.072 111.296C597.991 111.625 599.006 111.788 600.114 111.788C601.298 111.788 602.449 111.584 603.571 111.175C604.69 110.765 605.629 110.227 606.384 109.56L607.707 111.752C607.353 112.053 606.914 112.368 606.384 112.696C605.855 113.023 605.245 113.332 604.553 113.621C603.86 113.912 603.091 114.144 602.247 114.32C601.403 114.495 600.492 114.584 599.509 114.584C597.87 114.584 596.43 114.35 595.184 113.885C593.938 113.42 592.898 112.752 592.067 111.884C591.235 111.014 590.607 109.97 590.178 108.748C589.751 107.526 589.537 106.173 589.537 104.687C589.537 103.101 589.757 101.69 590.198 100.455C590.638 99.2221 591.274 98.1892 592.106 97.3582C592.938 96.5272 593.944 95.8921 595.128 95.4501C596.312 95.0101 597.633 94.7891 599.094 94.7891C600.958 94.7891 602.476 94.9531 603.647 95.2811C604.818 95.6091 605.805 95.9731 606.612 96.3751L606.574 96.4891V101.74H603.855L603.854 98.1511Z" fill="black" stroke="#166D36" stroke-width="2" stroke-miterlimit="10"/>
<path d="M614.014 96.715C615.096 96.086 616.318 95.633 617.678 95.356C619.038 95.079 620.373 94.939 621.682 94.939C622.967 94.939 624.018 95.142 624.836 95.545C625.654 95.948 626.296 96.47 626.764 97.113C627.23 97.754 627.543 98.486 627.708 99.303C627.871 100.122 627.954 100.946 627.954 101.778C627.954 102.734 627.928 103.755 627.879 104.837C627.828 105.921 627.79 107.004 627.765 108.086C627.765 109.345 627.84 110.541 627.991 111.675H630.523V114.13H625.534L625.197 111.297H625.006C624.855 111.523 624.628 111.813 624.325 112.165C624.021 112.519 623.623 112.864 623.131 113.204C622.639 113.544 622.038 113.84 621.331 114.091C620.624 114.343 619.791 114.469 618.83 114.469C616.961 114.469 615.484 113.991 614.397 113.033C613.31 112.077 612.768 110.767 612.768 109.104C612.768 107.821 613.052 106.751 613.621 105.893C614.188 105.038 615.003 104.382 616.065 103.929C617.126 103.477 618.408 103.213 619.911 103.136C621.414 103.061 623.1 103.162 624.97 103.439C625.096 102.282 625.114 101.318 625.027 100.549C624.94 99.78 624.736 99.17 624.421 98.717C624.104 98.264 623.662 97.9421 623.094 97.7531C622.524 97.5641 621.823 97.47 620.99 97.47C619.853 97.47 618.766 97.628 617.73 97.942C616.694 98.257 615.772 98.578 614.963 98.906L614.015 96.714L614.014 96.715ZM619.604 111.94C620.31 111.94 620.964 111.826 621.568 111.599C622.174 111.373 622.702 111.084 623.156 110.731C623.609 110.379 623.986 109.995 624.289 109.58C624.59 109.163 624.818 108.767 624.968 108.389V105.745C623.658 105.519 622.45 105.405 621.342 105.405C620.234 105.405 619.276 105.525 618.471 105.763C617.666 106.003 617.035 106.375 616.582 106.877C616.129 107.381 615.903 108.036 615.903 108.841C615.903 109.673 616.186 110.397 616.753 111.013C617.32 111.631 618.27 111.94 619.604 111.94Z" fill="black" stroke="#166D36" stroke-width="2" stroke-miterlimit="10"/>
<path d="M635.093 114.13V111.598H640.193V97.7732H635.093V95.2412H642.157L642.761 97.6963H642.95C643.806 96.9173 644.762 96.2482 645.821 95.6952C646.879 95.1422 648.137 94.8633 649.598 94.8633C650.454 94.8633 651.141 95.0272 651.658 95.3552C652.173 95.6822 652.576 96.1603 652.866 96.7913C653.155 97.4203 653.35 98.1822 653.452 99.0752C653.552 99.9702 653.603 100.984 653.603 102.117L650.959 102.154C650.959 100.557 650.801 99.3833 650.487 98.6333C650.172 97.8833 649.599 97.5093 648.769 97.5093C647.987 97.5093 647.283 97.6213 646.652 97.8473C646.023 98.0733 645.475 98.3503 645.009 98.6753C644.543 99.0023 644.147 99.3282 643.819 99.6562C643.492 99.9823 643.252 100.259 643.101 100.484V111.597H650.355V114.129L635.093 114.13Z" fill="black" stroke="#166D36" stroke-width="2" stroke-miterlimit="10"/>
</g>
</g>
<defs>
<clipPath id="clip0_86_816">
<rect width="1117" height="563" fill="white"/>
</clipPath>
<clipPath id="clip1_86_816">
<rect width="2168.69" height="1635.7" fill="white" transform="translate(-342 -1086)"/>
</clipPath>
</defs>
</svg>
