<svg width="161" height="151" viewBox="0 0 161 151" fill="none" xmlns="http://www.w3.org/2000/svg">
<path d="M119.681 33.283C108.957 33.283 98.2321 33.3369 87.5081 33.2379C85.3011 33.2179 84.185 33.8529 83.207 35.9689C78.75 45.6029 71.1351 50.8789 60.4301 50.7629C49.8441 50.6479 42.404 45.3049 38.098 35.6989C37.297 33.9109 36.347 33.2209 34.375 33.2419C25.73 33.3369 17.083 33.2919 8.43702 33.2639C5.46202 33.2539 3.121 32.075 1.823 29.265C0.484004 26.365 0.601981 23.61 2.82398 21.153C4.62098 19.166 6.98104 18.5009 9.56104 18.4959C17.625 18.4799 25.691 18.39 33.752 18.549C36.184 18.597 37.4009 17.8929 38.3879 15.5959C42.4149 6.22395 51.941 0.369928 62.109 1.03693C71.732 1.66793 78.6661 6.63897 82.7951 15.228C84.0481 17.834 85.452 18.5719 88.228 18.5549C109.094 18.4319 129.962 18.4839 150.829 18.5009C151.982 18.5009 153.171 18.5369 154.281 18.8099C158.219 19.7759 160.792 23.0739 160.369 26.4479C159.832 30.7369 157.079 33.2149 152.603 33.2629C146.95 33.3239 141.297 33.2809 135.644 33.2819C130.323 33.2819 125.003 33.2819 119.682 33.2819L119.681 33.283ZM50.775 26.155C50.92 32.635 55.1361 35.7339 60.7791 35.9219C66.3961 36.1089 70.969 31.743 70.668 26.301C70.319 19.986 67.737 16.2619 60.673 16.0319C54.756 15.8389 50.801 20.086 50.775 26.155Z" fill="#8315F9"/>
<path d="M114.249 133.22C101.859 133.22 89.47 133.255 77.081 133.183C75.154 133.172 74.1749 133.74 73.3559 135.595C65.7219 152.866 43.51 156 31.572 141.486C30.017 139.595 28.927 137.275 27.873 135.036C27.246 133.705 26.5269 133.173 25.0639 133.193C20.0759 133.26 15.085 133.293 10.098 133.185C4.89699 133.073 2.52998 131.52 1.35898 127.768C-0.153024 122.922 3.49202 118.439 9.25302 118.289C14.322 118.157 19.398 118.184 24.468 118.295C26.283 118.335 27.25 117.829 28.034 116.078C33.913 102.953 47.597 97.4199 60.812 102.996C66.697 105.479 70.8029 110.12 73.3499 115.933C74.1909 117.851 75.229 118.287 77.103 118.284C101.549 118.24 125.996 118.245 150.442 118.278C151.916 118.28 153.432 118.464 154.853 118.844C158.396 119.791 160.753 122.928 160.36 126.167C160.005 129.095 158.224 132.619 153.895 132.938C152.322 133.054 150.746 133.205 149.172 133.208C137.531 133.231 125.89 133.22 114.249 133.22ZM40.7879 125.35C40.5529 131.198 44.604 135.837 50.469 135.673C56.617 135.501 60.234 132.786 60.744 125.875C61.152 120.352 56.754 115.993 50.994 115.773C45.314 115.556 41.0199 119.586 40.7879 125.35Z" fill="#8315F9"/>
<path d="M46.9599 68.5949C59.1819 68.5949 71.404 68.5549 83.625 68.6309C85.868 68.6449 87.1409 68.1379 88.0949 65.8019C91.8339 56.6359 100.898 50.9059 110.908 50.9979C120.841 51.0889 129.622 57.0229 133.374 66.3439C134.041 68.0009 134.93 68.6459 136.681 68.6199C141.751 68.5459 146.825 68.5379 151.895 68.6169C156.627 68.6909 158.868 70.3529 160.06 74.4189C160.991 77.5939 158.637 81.8909 155.444 82.6609C154.084 82.9889 152.66 83.1799 151.262 83.1989C146.524 83.2639 141.781 83.328 137.047 83.176C134.998 83.11 133.934 83.771 133.159 85.681C129.375 94.999 120.176 100.897 110.199 100.546C99.4669 100.168 92.0269 94.9209 87.8299 85.1349C87.0459 83.3079 85.8919 83.209 84.3139 83.21C59.6209 83.231 34.928 83.2299 10.235 83.2199C5.01196 83.2179 2.94891 81.9999 1.51291 78.1879C0.055912 74.3199 2.49893 69.7929 6.58493 68.9609C7.95593 68.6819 9.39002 68.6159 10.795 68.6129C22.85 68.5869 34.906 68.598 46.961 68.598L46.9599 68.5949ZM110.683 85.8799C116.201 85.8589 120.746 81.4089 120.528 75.8859C120.261 69.1319 116.566 66.013 110.668 66.043C104.02 66.077 100.974 69.5509 100.654 76.0179C100.385 81.4639 105.216 85.9019 110.683 85.8799Z" fill="#8315F9"/>
</svg>
