<svg width="180" height="159" viewBox="0 0 180 159" fill="none" xmlns="http://www.w3.org/2000/svg">
<path d="M33.3439 125.476C29.4179 127.676 25.4519 129.906 21.4789 132.122C15.3599 135.535 11.8479 134.549 8.3109 128.431C6.2319 124.834 4.15093 121.238 2.09093 117.631C-0.848074 112.485 0.0579224 108.942 5.11192 105.915C9.30492 103.403 13.5219 100.933 17.2409 98.733C16.5969 95.726 15.5449 93.098 15.5899 90.488C15.6549 86.667 18.069 84.037 21.306 81.992C47.642 65.349 73.9289 48.629 100.252 31.965C101.823 30.97 102.765 30.218 102.277 27.91C101.347 23.509 103.538 20.08 107.225 17.87C116.203 12.486 125.233 7.18195 134.36 2.05695C140.09 -1.16105 145.655 0.706951 149.113 6.67295C157.781 21.626 166.422 36.594 175.072 51.556C176.07 53.283 177.119 54.983 178.049 56.746C180.973 62.288 179.434 67.983 174.05 71.121C165.293 76.225 156.497 81.265 147.679 86.264C142.523 89.187 138.187 88.446 133.933 84.256C133.477 83.807 132.266 83.597 131.7 83.876C128.051 85.669 124.458 87.5849 120.915 89.5809C120.37 89.8879 119.843 90.831 119.871 91.455C120.158 97.993 118.575 103.919 114.702 109.273C114.151 110.035 114.213 111.65 114.604 112.624C119.085 123.797 123.691 134.92 128.242 146.065C128.742 147.289 129.233 148.54 129.516 149.825C130.367 153.687 128.752 156.778 125.299 158.12C121.893 159.444 118.416 158.315 116.435 155.172C115.864 154.267 115.409 153.275 115.003 152.281C110.677 141.673 106.337 131.069 102.097 120.427C101.425 118.74 100.642 118.251 98.7899 118.481C96.3489 118.785 93.8129 118.774 91.3719 118.467C89.5899 118.243 88.8999 118.772 88.2709 120.334C83.8969 131.192 79.4519 142.021 74.9929 152.844C73.0239 157.625 70.2729 159.268 66.0189 158.336C62.0279 157.462 59.4689 154.089 60.6719 150.224C62.4189 144.612 64.749 139.178 66.905 133.697C69.064 128.208 71.3179 122.757 73.5189 117.285C73.7889 116.614 73.9879 115.915 74.4189 114.637C73.1219 115.289 72.2779 115.684 71.4609 116.129C64.0219 120.181 56.5989 124.261 49.1499 128.293C42.0419 132.14 38.7079 131.556 33.3439 125.478V125.476ZM110.106 43.073C83.8009 59.854 57.8429 76.414 31.7309 93.072C35.8209 100.118 39.8079 106.987 43.9169 114.065C52.6829 109.364 61.3049 104.763 69.8809 100.078C70.3359 99.83 70.5969 98.88 70.6189 98.246C70.7029 95.779 70.4269 93.282 70.6889 90.84C72.3979 74.935 87.4169 66.827 100.782 69.877C105.616 70.98 109.625 73.5359 113.229 76.9429C117.439 74.6159 121.543 72.347 125.768 70.011C120.487 60.928 115.367 52.122 110.106 43.074V43.073ZM137.925 17.114C131.381 20.887 125.078 24.522 118.68 28.211C127.088 42.801 135.339 57.119 143.701 71.628C150.19 67.812 156.517 64.09 162.955 60.304C154.577 45.848 146.332 31.621 137.925 17.114ZM105.129 94.0529C105.155 88.2159 100.934 83.9549 95.1149 83.9429C89.4819 83.9309 85.1579 88.184 85.0709 93.823C84.9809 99.625 89.2339 103.979 95.0159 104.004C100.926 104.029 105.103 99.92 105.13 94.054L105.129 94.0529Z" fill="#8315F9"/>
</svg>
