<svg width="160" height="161" viewBox="0 0 160 161" fill="none" xmlns="http://www.w3.org/2000/svg">
<path d="M0.51 78.458C1.253 57.358 8.94798 39.109 23.684 24.093C35.007 12.554 48.809 5.08594 64.83 2.23194C92.439 -2.68606 116.601 4.52697 136.617 24.103C148.086 35.32 155.44 49.127 158.175 65.101C158.999 69.912 159.595 74.7999 159.783 79.6719C160.06 86.8449 154.425 91.314 147.479 89.817C143.594 88.98 140.669 85.3879 140.326 80.9739C139.772 73.8459 138.977 66.784 136.568 59.965C132.085 47.274 124.153 37.226 112.948 29.999C97.226 19.859 79.918 17.66 62.283 23.155C40.739 29.868 27.15 44.7889 21.921 66.8859C20.876 71.3039 20.529 75.9019 20.065 80.4379C19.445 86.5059 15.499 90.3879 9.937 90.1379C4.218 89.8809 0.476993 85.642 0.508993 79.455C0.510993 79.123 0.508993 78.791 0.508993 78.458H0.51Z" fill="#8315F9"/>
<path d="M69.378 84.81C66.685 87.606 63.998 90.407 61.299 93.195C58.583 96.001 55.868 98.807 53.129 101.59C49.3 105.48 44.238 105.764 40.792 103.972C34.357 100.625 33.653 92.804 39.205 87.194C48.443 77.861 57.754 68.6 67.035 59.31C68.797 57.547 70.523 55.745 72.338 54.037C77.022 49.631 83.432 49.52 88.015 54.049C99.246 65.147 110.347 76.377 121.508 87.546C127.451 93.494 124.666 101.834 119.566 104.005C115.721 105.641 110.906 105.403 107.039 101.401C102.882 97.099 98.67 92.849 94.556 88.506C93.366 87.25 92.432 85.753 91.38 84.366C91.013 84.588 90.647 84.811 90.28 85.033C90.178 86.113 89.987 87.194 89.986 88.274C89.968 108.39 89.95 128.506 89.989 148.622C89.997 152.759 89.066 156.303 85.279 158.663C79.369 162.347 71.332 158.567 70.516 151.626C70.371 150.393 70.397 149.136 70.397 147.89C70.39 128.023 70.395 108.157 70.385 88.29C70.385 87.253 70.283 86.215 70.228 85.178C69.945 85.055 69.662 84.932 69.379 84.808L69.378 84.81Z" fill="#8315F9"/>
</svg>
